<?xml version="1.0" encoding="UTF-8"?>
<svg width="232px" height="250px" viewBox="0 0 232 250" version="1.1" xmlns="http://www.w3.org/2000/svg" xmlns:xlink="http://www.w3.org/1999/xlink">
    <title>logo</title>
    <g id="Page-1" stroke="none" stroke-width="1" fill="none" fill-rule="evenodd">
        <g id="logo" transform="translate(-63.000000, -64.000000)">
            <rect id="Rectangle" x="0" y="0" width="350" height="350"></rect>
            <g id="k" transform="translate(68.000000, 41.000000)" fill="#2F313A">
                <rect id="Rectangle-2" stroke="#FFFFFF" stroke-width="5" x="-2.5" y="25.5" width="45" height="165"></rect>
                <path d="M104.509145,-14.1594685 L104.509145,146.523124 L59.5113112,146.523124 L59.4113167,31.1724734 L104.509145,-14.1594685 Z" id="Rectangle-2-Copy" stroke="#FFFFFF" stroke-width="5" transform="translate(81.960678, 67.960678) rotate(45.000000) translate(-81.960678, -67.960678) "></path>
                <path d="M104.253048,69.3794193 L104.253048,231.209506 L58.7423186,185.13015 L59.2642967,69.3794193 L104.253048,69.3794193 Z" id="Rectangle-2-Copy-2" stroke="#FFFFFF" stroke-width="5" transform="translate(81.500000, 148.500000) rotate(-45.000000) translate(-81.500000, -148.500000) "></path>
                <rect id="Rectangle-2-Copy" transform="translate(46.426407, 103.426407) rotate(45.000000) translate(-46.426407, -103.426407) " x="26.4264069" y="77.5685425" width="40" height="51.7157288"></rect>
            </g>
            <g id="s" transform="translate(145.000000, 41.000000)" fill="#2F313A">
                <path d="M91.5335038,145.816046 L91.0545175,265.513285 L46.5143716,310.053431 L46.4113167,191.172473 L91.5335038,145.816046 Z" id="Rectangle-2-Copy-6" stroke="#FFFFFF" stroke-width="5" transform="translate(68.960678, 227.960678) rotate(45.000000) translate(-68.960678, -227.960678) "></path>
                <path d="M91.509145,-14.1594685 L91.509145,146.523124 L46.5113112,146.523124 L46.4113167,31.1724734 L91.509145,-14.1594685 Z" id="Rectangle-2-Copy-3" stroke="#FFFFFF" stroke-width="5" transform="translate(68.960678, 67.960678) rotate(45.000000) translate(-68.960678, -67.960678) "></path>
                <path d="M91.2530483,69.3794193 L91.2530483,231.209506 L45.7423186,185.13015 L46.2642967,69.3794193 L91.2530483,69.3794193 Z" id="Rectangle-2-Copy-4" stroke="#FFFFFF" stroke-width="5" transform="translate(68.500000, 148.500000) rotate(-45.000000) translate(-68.500000, -148.500000) "></path>
                <polygon id="Rectangle-2-Copy-6" transform="translate(99.602814, 197.318542) rotate(45.000000) translate(-99.602814, -197.318542) " points="79.5543469 181.932973 119.651281 164.59062 119.651281 230.046465 79.6512806 230.046465"></polygon>
                <rect id="Rectangle-2-Copy-5" transform="translate(33.426407, 103.426407) rotate(45.000000) translate(-33.426407, -103.426407) " x="13.4264069" y="77.5685425" width="40" height="51.7157288"></rect>
            </g>
        </g>
    </g>
</svg>