<?xml version="1.0" encoding="UTF-8"?>
<svg width="227px" height="250px" viewBox="0 0 227 250" version="1.1" xmlns="http://www.w3.org/2000/svg" xmlns:xlink="http://www.w3.org/1999/xlink">
    <!-- Generator: Sketch 44.1 (41455) - http://www.bohemiancoding.com/sketch -->
    <title>logo</title>
    <desc>Created with Sketch.</desc>
    <defs>
        <polygon id="path-1" points="61.9122113 32.2033188 102.009145 -8.10176772 102.009145 144.023124 62.009145 144.023124"></polygon>
        <polygon id="path-2" points="61.7530483 71.8794193 101.753048 71.8794193 101.753048 225.120581 61.2469517 184.108387"></polygon>
        <polygon id="path-3" points="48.9122113 192.203319 89.009145 151.898232 88.5586579 264.473611 49.009145 304.023124"></polygon>
        <polygon id="path-4" points="48.9122113 32.2033188 89.009145 -8.10176772 89.009145 144.023124 49.009145 144.023124"></polygon>
        <polygon id="path-5" points="48.7530483 71.8794193 88.7530483 71.8794193 88.7530483 225.120581 48.2469517 184.108387"></polygon>
    </defs>
    <g id="Page-1" stroke="none" stroke-width="1" fill="none" fill-rule="evenodd">
        <g id="Artboard" transform="translate(-143.000000, -143.000000)">
            <g id="logo" transform="translate(143.000000, 120.000000)">
                <g id="k">
                    <rect id="Rectangle-2" fill="#FFFFFF" x="0" y="28" width="40" height="160"></rect>
                    <g id="Rectangle-2-Copy" transform="translate(81.960678, 67.960678) rotate(45.000000) translate(-81.960678, -67.960678) ">
                        <use fill="#FFFFFF" fill-rule="evenodd" xlink:href="#path-1"></use>
                        <path stroke="#2F313A" stroke-width="5" d="M59.4113167,31.1724734 L104.509145,-14.1594685 L104.509145,146.523124 L59.5113112,146.523124 L59.4113167,31.1724734 Z"></path>
                    </g>
                    <g id="Rectangle-2-Copy-2" transform="translate(81.500000, 148.500000) rotate(-45.000000) translate(-81.500000, -148.500000) ">
                        <use fill="#FFFFFF" fill-rule="evenodd" xlink:href="#path-2"></use>
                        <path stroke="#2F313A" stroke-width="5" d="M59.2642967,69.3794193 L104.253048,69.3794193 L104.253048,231.209506 L58.7423186,185.13015 L59.2642967,69.3794193 Z"></path>
                    </g>
                    <rect id="Rectangle-2-Copy" fill="#FFFFFF" transform="translate(46.426407, 103.426407) rotate(45.000000) translate(-46.426407, -103.426407) " x="26.4264069" y="77.5685425" width="40" height="51.7157288"></rect>
                </g>
                <g id="s" transform="translate(77.000000, 0.000000)">
                    <g id="Rectangle-2-Copy-6" transform="translate(68.960678, 227.960678) rotate(45.000000) translate(-68.960678, -227.960678) ">
                        <use fill="#FFFFFF" fill-rule="evenodd" xlink:href="#path-3"></use>
                        <path stroke="#2F313A" stroke-width="5" d="M46.4113167,191.172473 L91.5335038,145.816046 L91.0545175,265.513285 L46.5143716,310.053431 L46.4113167,191.172473 Z"></path>
                    </g>
                    <g id="Rectangle-2-Copy-3" transform="translate(68.960678, 67.960678) rotate(45.000000) translate(-68.960678, -67.960678) ">
                        <use fill="#FFFFFF" fill-rule="evenodd" xlink:href="#path-4"></use>
                        <path stroke="#2F313A" stroke-width="5" d="M46.4113167,31.1724734 L91.509145,-14.1594685 L91.509145,146.523124 L46.5113112,146.523124 L46.4113167,31.1724734 Z"></path>
                    </g>
                    <g id="Rectangle-2-Copy-4" transform="translate(68.500000, 148.500000) rotate(-45.000000) translate(-68.500000, -148.500000) ">
                        <use fill="#FFFFFF" fill-rule="evenodd" xlink:href="#path-5"></use>
                        <path stroke="#2F313A" stroke-width="5" d="M46.2642967,69.3794193 L91.2530483,69.3794193 L91.2530483,231.209506 L45.7423186,185.13015 L46.2642967,69.3794193 Z"></path>
                    </g>
                    <polygon id="Rectangle-2-Copy-6" fill="#FFFFFF" transform="translate(99.602814, 197.318542) rotate(45.000000) translate(-99.602814, -197.318542) " points="79.5543469 181.932973 119.651281 164.59062 119.651281 230.046465 79.6512806 230.046465"></polygon>
                    <rect id="Rectangle-2-Copy-5" fill="#FFFFFF" transform="translate(33.426407, 103.426407) rotate(45.000000) translate(-33.426407, -103.426407) " x="13.4264069" y="77.5685425" width="40" height="51.7157288"></rect>
                </g>
            </g>
        </g>
    </g>
</svg>