<svg xmlns="http://www.w3.org/2000/svg" viewBox="249.3 336.5 106 40" enable-background="new 249.3 336.5 106 40">

<path fill="#FFF" d="M276.7 343.4c-3.8 0-6.7 2.5-7.8 6.5-1.8-2.8-3.2-6-4-8.7h-4v10.6c0 2.1-1.7 3.8-3.8 3.8-2.1 0-3.8-1.7-3.8-3.8v-10.6h-4v10.6c0 4.4 3.5 7.9 7.8 7.9s7.8-3.5 7.8-7.9V350c.8 1.6 1.8 3.3 2.9 4.8l-2.5 11.7h4.1l1.8-8.5c1.6 1 3.4 1.6 5.5 1.6 4.4 0 8-3.6 8-8.2 0-4.4-3.6-8-8-8zm0 12.1c-1.6 0-3.2-.7-4.5-1.8l.4-1.6v-.1c.3-1.7 1.2-4.6 4.2-4.6 2.2 0 4 1.8 4 4-.1 2.3-2 4.1-4.1 4.1z"/>
</svg>
